<svg version="1.1" xmlns="http://www.w3.org/2000/svg" style="display: block;" viewBox="0 0 2048 2048" width="1254" height="1254" preserveAspectRatio="none">
<path transform="translate(0,0)" fill="rgb(255,255,254)" d="M 0 0 L 2048 0 L 2048 2048 L 0 2048 L 0 0 z"/>
<path transform="translate(0,0)" fill="rgb(8,59,38)" d="M 1408.51 665.643 C 1401.46 656.117 1391.67 642.237 1406.66 633.148 C 1426.48 621.14 1454.23 664.425 1462.58 677.774 C 1476.06 699.332 1452.44 726.232 1432.97 698.593 C 1417.62 703.456 1396.36 709.208 1381.77 714.598 L 1427.37 822.797 C 1435.87 842.828 1445.53 864.249 1453.4 884.416 C 1511.4 862.009 1567.17 852.873 1629.44 864.402 C 1745.34 885.863 1836.46 968.519 1878.46 1077.63 C 1913.24 1168.68 1910.48 1269.8 1870.79 1358.81 C 1834.12 1442.88 1765.49 1508.88 1680.05 1542.23 C 1599.7 1573.37 1510.15 1570.59 1431.89 1534.52 C 1346.85 1496.07 1284.57 1423.9 1252.15 1337.09 C 1219.02 1249.06 1222.11 1151.48 1260.75 1065.73 C 1292.69 996.224 1346.7 939.218 1414.37 903.566 L 1383.8 830.451 C 1332.41 891.219 1281.32 952.247 1230.55 1013.53 L 1179.23 1075.92 C 1170.7 1086.31 1160.32 1099.65 1151.48 1109.33 C 1147.04 1102.59 1127.28 1078.1 1125.31 1073.62 C 1155.09 1036.15 1187.27 998.201 1217.89 961.322 L 1347.71 804.946 L 987.214 908.032 L 888.226 936.334 C 878.973 938.977 843.624 948.45 837.282 951.988 C 823.557 959.645 797.492 983.68 784.05 994.986 C 793.989 1009.72 802.144 1022.86 810.606 1038.44 C 896.862 1197.18 846.548 1408.4 696.016 1509.21 C 623.773 1557.28 535.445 1574.8 450.326 1557.95 C 361.519 1539.87 283.639 1487 234.054 1411.14 C 180.601 1329.34 161.401 1229.83 180.585 1134.02 C 198.185 1043.28 251.268 963.316 328.057 911.868 C 402.029 862.654 492.607 845.056 579.625 862.992 C 650.029 877.704 706.032 910.928 756.129 961.601 C 769.365 950.238 783.771 938.315 796.789 926.799 C 815.415 910.324 825.413 907.514 849.164 901.302 C 831.06 848.25 810.004 795.904 791.688 743.161 C 786.862 743.247 775.448 743.849 770.097 742.415 C 749.832 736.785 729.01 723.374 710.19 714.157 C 700.765 709.54 704.733 681.899 719.983 681.515 C 781.308 679.971 843.345 682.895 904.705 683.775 C 926.155 684.083 932.632 707.867 916.952 719.817 C 905.958 728.314 881.683 721.578 868.517 724.388 C 858.521 726.419 846.466 733.14 837.079 737.482 L 892.314 889.981 L 1186.89 806.615 C 1242.18 790.837 1299.45 773.786 1354.93 759.203 C 1345.05 736.208 1319.34 694.914 1352.88 682.769 C 1370.62 676.347 1390.45 671.679 1408.51 665.643 z"/>
<path transform="translate(0,0)" fill="rgb(255,255,254)" d="M 496.377 899.419 C 500.882 898.834 511.891 898.821 516.518 898.867 C 594.654 900.166 669.084 932.412 723.472 988.528 C 660.046 1045.02 593.31 1098.85 529.842 1155.44 C 526.767 1158.18 520.612 1165.14 519.803 1169.04 C 513.709 1198.41 546.367 1202.3 566.91 1208.22 C 587.653 1214.25 608.466 1220.03 629.345 1225.57 C 687.941 1241.18 746.617 1256.48 805.374 1271.47 C 786.107 1356.33 749.13 1419.85 677.649 1471.91 C 633.985 1500.5 589.724 1517.02 537.417 1521.47 C 460.515 1527.32 384.406 1502.61 325.601 1452.71 C 261.508 1398.41 220.905 1313.89 215.573 1230.48 C 204.527 1057.67 321.299 913.329 496.377 899.419 z"/>
<path transform="translate(0,0)" fill="rgb(16,119,132)" d="M 304.248 1189.41 C 338.93 1185.17 380.554 1199.18 410.109 1216.23 C 430.304 1227.88 449.493 1241.71 469.737 1253.31 C 492.024 1266.24 515.746 1276.53 540.421 1283.96 C 563.497 1290.65 587.266 1294.66 611.259 1295.91 C 680.874 1299.62 706.252 1295.72 770.686 1333.51 L 759.487 1357.3 C 652.025 1303.21 620.619 1379.79 534.247 1361.59 L 520.172 1357.76 C 534.195 1356.21 554.255 1353.16 561.942 1339.57 C 570.735 1324.02 555.74 1308.58 542.596 1301.82 C 522.52 1291.5 505.997 1295.03 485.815 1301.47 C 469.036 1277.46 440.885 1267.09 412.792 1264.59 C 409.747 1258.79 407.311 1254.77 402.537 1250.02 C 380.871 1228.48 346.155 1224.23 317.944 1233.49 C 311.249 1235.69 302.502 1239.86 299.489 1246.71 C 298.053 1249.93 298.125 1253.62 299.684 1256.78 C 305.158 1268.14 324.478 1273.5 335.58 1276.95 C 319.818 1285.09 313.452 1289.62 302.915 1303.64 C 279.336 1307.04 271.409 1311.87 257.074 1330.5 C 239.491 1290.22 233.13 1255.78 231.388 1212.36 C 252.417 1199.25 279.689 1191.5 304.248 1189.41 z"/>
<path transform="translate(0,0)" fill="rgb(16,119,132)" d="M 396.51 1020.38 C 403.308 1019.34 409.362 1020.11 417.042 1020.27 C 462.446 1021.25 513.913 1078.85 470.311 1117.07 C 468.246 1118.88 464.622 1121.2 461.445 1120.75 C 457.971 1116.96 460.394 1109.33 458.78 1105.83 C 449.117 1084.89 420.584 1086.87 411.217 1106.94 C 405.325 1119.56 408.077 1128.27 411.834 1139.33 C 409.239 1137.4 406.728 1135.36 404.308 1133.22 C 396.655 1126.29 392.105 1116.58 391.678 1106.27 C 391.294 1096.91 394.897 1087.84 401.591 1081.29 C 420.924 1062.21 447.373 1068.53 464.987 1086.3 C 451.178 1051.7 414.479 1041.93 385.878 1065.34 C 374.99 1074.14 368.139 1086.97 366.897 1100.91 C 364.125 1135.32 399.697 1166.18 431.85 1168.33 C 457.715 1197.11 482.738 1215.17 515.916 1233.89 C 554.086 1254.92 579.525 1263.09 620.914 1273.41 C 555.221 1274.58 502.015 1255.5 448.548 1218 C 377.82 1168.41 311.809 1151.64 231.757 1190.08 C 231.87 1178.43 234.264 1161.86 236.041 1150.26 C 260.871 1130.37 274.948 1107.3 294.52 1083.02 C 320.691 1050.55 353.82 1024.72 396.51 1020.38 z"/>
<path transform="translate(0,0)" fill="rgb(8,59,38)" d="M 337.705 1239.31 C 362.344 1235.71 390.305 1246.85 399.002 1271.74 C 422.805 1273.94 446.397 1277.86 464.983 1294.07 C 485.245 1311.73 484.667 1337.7 466.852 1356.77 C 449.274 1375.58 420.764 1383.14 395.976 1384.46 C 375.991 1384.9 353.42 1382.01 335.823 1372.18 C 276.102 1338.84 308.083 1291.06 359.088 1277.06 C 347.866 1271.78 305.546 1260.62 310.025 1247.99 C 316.293 1241.75 328.775 1240.82 337.705 1239.31 z"/>
<path transform="translate(0,0)" fill="rgb(255,255,254)" d="M 390.167 1278.37 C 406.622 1276.77 422.959 1280.4 437.613 1287.78 C 433.424 1287.52 424.584 1286.59 422.846 1289.6 C 415.621 1302.15 447.236 1311.79 455.488 1313.97 C 454.874 1313.8 462.697 1311.19 462.604 1311.21 C 464.521 1312.64 465.192 1313.24 465.559 1315.84 C 469.853 1346.29 435.859 1362.11 411.771 1367.09 C 384.182 1370.74 357.472 1368.5 333.428 1352.74 C 317.062 1342.02 310.535 1325.1 323.866 1308.77 C 339.881 1289.16 365.892 1281.25 390.167 1278.37 z"/>
<path transform="translate(0,0)" fill="rgb(8,59,38)" d="M 372.467 1315.14 C 380.997 1315.7 393.309 1317.52 399.287 1323.3 C 403.353 1327.22 408.187 1356.82 403.839 1359.16 C 393.438 1364.76 360.031 1361.77 351.292 1352.34 C 349.666 1350.59 350.552 1347.75 350.946 1345.5 C 360.155 1333.59 358.089 1330.27 372.467 1315.14 z"/>
<path transform="translate(0,0)" fill="rgb(8,59,38)" d="M 421.284 1305.68 C 435.973 1307.19 450.007 1318.82 457.444 1331.12 C 451.208 1340.99 446.452 1344.03 436.976 1350.1 C 429.199 1354.51 424.987 1355.76 416.547 1357.81 C 413.589 1350.98 407.367 1326.76 405.133 1318.8 C 410.18 1314.06 415.802 1309.92 421.284 1305.68 z"/>
<path transform="translate(0,0)" fill="rgb(8,59,38)" d="M 350.136 1344.91 C 346.827 1348.35 348.241 1347.79 344.094 1348.94 C 326.177 1346.38 320.059 1320.96 333.959 1309.26 C 341.072 1303.27 353.776 1288.9 364.838 1297.99 C 367.641 1300.29 370.613 1310.5 370.783 1313.85 L 372.467 1315.14 C 358.089 1330.27 360.155 1333.59 350.946 1345.5 L 350.136 1344.91 z"/>
<path transform="translate(0,0)" fill="rgb(55,103,80)" d="M 350.136 1344.91 C 352.729 1335.54 363.803 1320.66 370.783 1313.85 L 372.467 1315.14 C 358.089 1330.27 360.155 1333.59 350.946 1345.5 L 350.136 1344.91 z"/>
<path transform="translate(0,0)" fill="rgb(8,59,38)" d="M 384.749 1284.18 C 397.126 1283.3 411.058 1282.56 418.951 1294.55 C 424.946 1303.66 412.256 1311.41 405.057 1313.94 C 397.476 1314.53 385.651 1314.51 379.364 1310.35 C 361.564 1298.56 366.339 1288.23 384.749 1284.18 z"/>
<path transform="translate(0,0)" fill="rgb(237,159,38)" d="M 672.773 1420.39 C 686.144 1418.73 697.356 1420.1 710.257 1423.22 C 691.572 1446.38 647.721 1473.63 620.391 1484.77 C 548.227 1514.18 479.008 1513.11 407.543 1484.02 C 392.462 1477.92 374.765 1467.77 361.284 1458.8 C 386.217 1451.03 412.469 1447.09 438.183 1451.56 C 473.535 1459.38 499.482 1464.72 535.919 1462.07 C 585.825 1458.44 625.577 1425.96 672.773 1420.39 z"/>
<path transform="translate(0,0)" fill="rgb(16,119,132)" d="M 679.816 1357.42 C 703.342 1355.29 728.538 1362.49 748.982 1373.9 C 741.981 1385.71 733.996 1396.9 725.111 1407.36 C 655.671 1385.49 621.329 1423.08 553.951 1439.77 C 528.132 1445.05 513.088 1444.54 487.583 1442.44 C 489.88 1440.08 492.149 1437.69 494.388 1435.27 C 511.751 1416.47 517.01 1402.39 516.056 1377.21 C 595.468 1398.81 615.092 1362.82 679.816 1357.42 z"/>
<path transform="translate(0,0)" fill="rgb(16,119,132)" d="M 445.498 1383.91 C 461.304 1389.85 450.173 1421.7 448.559 1432.98 L 448.386 1434.26 C 408.231 1428.23 381.096 1429.92 342.951 1444.87 C 336.104 1438.8 329.342 1432.64 322.667 1426.38 C 314.123 1417.82 307.304 1409.67 299.49 1400.46 C 317.151 1399.1 325.44 1395.54 339.532 1385.18 C 375.904 1398.95 409.861 1399.27 445.498 1383.91 z"/>
<path transform="translate(0,0)" fill="rgb(8,59,38)" d="M 474.475 1353.92 C 525.555 1360.81 504.75 1418.57 473.135 1439.66 C 469.342 1441.79 466.374 1443.42 462.079 1442.4 C 450.38 1429.69 480.147 1402.44 450.607 1373.46 C 460.779 1367.48 466.411 1362.4 474.475 1353.92 z"/>
<path transform="translate(0,0)" fill="rgb(8,59,38)" d="M 508.96 1305.24 C 522.047 1304 533.438 1306.58 544.128 1314.46 C 551.267 1319.72 558.766 1330.59 551.177 1338.46 C 545.22 1344.64 529.394 1346.6 521.226 1347.13 C 500.361 1347.43 505.138 1340.7 479.013 1348.02 C 485.078 1334.23 485.089 1326.84 481.12 1312.88 C 490.268 1310.63 499.785 1307.73 508.96 1305.24 z"/>
<path transform="translate(0,0)" fill="rgb(255,255,254)" d="M 527.39 1317.75 C 531.591 1317.54 533.795 1317.48 536.927 1320.18 C 537.574 1323.58 537.557 1322.3 535.236 1326.09 C 531.4 1325.92 529.246 1326.02 526.236 1323.65 C 525.225 1319.97 525.198 1321.89 527.39 1317.75 z"/>
<path transform="translate(0,0)" fill="rgb(8,59,38)" d="M 302.805 1355.24 C 303.682 1355.06 306.507 1354.46 307.05 1354.88 C 317.086 1362.57 322.44 1368.1 333.489 1374.37 C 324.903 1383.3 319.352 1385.58 308.115 1389.22 C 301.673 1390.39 297.601 1390.45 291.068 1390.68 C 285.699 1383.83 282.894 1379.74 278.337 1372.3 C 285.707 1360.68 289.826 1358.09 302.805 1355.24 z"/>
<path transform="translate(0,0)" fill="rgb(8,59,38)" d="M 296.24 1314.16 C 300.059 1314.1 300.382 1313.38 302.592 1315.25 C 303.361 1324.89 299.604 1329 301.442 1342.08 C 291.167 1345.85 283.017 1346.71 272.333 1348.37 C 267.425 1349.26 264.528 1349.61 262.948 1344.5 C 265.265 1329.14 281.925 1317.54 296.24 1314.16 z"/>
<path transform="translate(0,0)" fill="rgb(255,255,254)" d="M 1290.07 1321.17 C 1268.65 1262.51 1264.96 1198.84 1279.48 1138.1 C 1302.2 1046.6 1352.3 990.745 1430.94 943.509 L 1517.37 1147.44 C 1526.04 1168.01 1535.34 1186.99 1540.51 1208.83 C 1542.72 1218.21 1557.99 1225.04 1568.71 1223.09 C 1576.11 1221.69 1582.64 1217.37 1586.82 1211.1 C 1590.71 1205.23 1592.11 1198.06 1590.69 1191.16 C 1588.84 1182.22 1583.97 1177.41 1576.67 1172.86 L 1575.41 1172.09 L 1567.2 1151.16 C 1583.99 1155.09 1600.6 1159.79 1616.97 1165.23 C 1622.21 1167.01 1627.97 1169.97 1632.56 1171.46 C 1635.12 1172.26 1652.54 1174.87 1653.62 1176.04 C 1664.4 1187.65 1658.95 1180.37 1668.33 1181.48 C 1670.04 1185.03 1668.74 1184.04 1671.61 1185.54 C 1672.57 1185.14 1673.53 1184.74 1674.5 1184.34 C 1684.09 1186.49 1705.33 1193.77 1713.71 1197.05 C 1711.99 1186.01 1707.94 1170.97 1705.21 1159.75 C 1713.3 1166.06 1719.93 1170.63 1728.4 1176.28 C 1729.92 1184.6 1732.7 1197.79 1736.02 1205.46 C 1742.5 1233.74 1750.23 1260.74 1756.93 1288.56 C 1759.62 1296.58 1762.54 1306.04 1765.77 1313.73 L 1761.8 1312.93 C 1765.99 1322.58 1771.23 1340.94 1774.9 1351.82 C 1781.03 1369.58 1787.52 1387.22 1794.37 1404.72 C 1781.94 1420.94 1772.45 1431.25 1757.79 1445.53 C 1770.62 1369.08 1739.24 1294.22 1660.58 1271.95 C 1662.82 1326.09 1676.78 1370.35 1705.93 1415.62 C 1699.49 1411.98 1690.38 1402.64 1683.03 1397.24 C 1656.56 1374.07 1638.2 1362.15 1602.7 1355.7 C 1605.97 1396.57 1622.11 1435.36 1648.79 1466.49 C 1638.38 1461.32 1628.2 1453.72 1618.76 1446.9 C 1585.84 1416.4 1554.1 1403.84 1509.57 1402.41 C 1509.71 1403.76 1509.86 1405.11 1510.02 1406.46 C 1515.53 1452.31 1531.07 1492 1568.3 1521.13 C 1554.41 1521.28 1536.75 1519.12 1522.88 1517.34 C 1520.71 1505.93 1516.74 1496.43 1511.5 1483.99 C 1497.93 1451.74 1485.19 1398.55 1512.3 1369.68 C 1524.43 1356.75 1546.92 1375.45 1560.61 1376.72 C 1577.81 1378.33 1585.41 1367.59 1586.74 1351.14 C 1594.85 1342.55 1600.9 1324.15 1602.51 1312.02 C 1602.98 1308.51 1598.75 1304.88 1596.14 1302.57 C 1593 1302.46 1592.9 1302.04 1589.92 1300.74 C 1584 1296.41 1569.46 1282.95 1562.49 1277.19 C 1557.22 1251.5 1534.83 1246.71 1512.91 1239.43 C 1511.41 1237.99 1511.08 1237.94 1509.14 1237.32 L 1507.34 1236.75 L 1508.06 1236.47 L 1506.87 1234.4 C 1502.02 1233.71 1496.71 1234.53 1493.7 1231.68 L 1495.13 1228.07 L 1491.08 1226.53 C 1485.62 1237 1484.66 1232.4 1474.86 1235.96 C 1454.39 1220.05 1444.26 1227.38 1441.31 1252.22 C 1430.65 1260.59 1423.86 1265.82 1415.08 1276.04 C 1422.11 1260.78 1426.85 1244.95 1431.84 1228.93 C 1379.82 1230.84 1341.24 1258.29 1319.36 1305.06 C 1316.07 1312.66 1315.85 1342.74 1316.11 1352.26 L 1316.79 1351.37 C 1333.19 1329.4 1351.06 1296.06 1374.46 1278.96 C 1359.18 1299.49 1331.54 1339.96 1324.89 1364.62 C 1320.79 1366.09 1316.62 1367.64 1312.51 1369.04 C 1303.58 1353.81 1296.07 1337.78 1290.07 1321.17 z"/>
<path transform="translate(0,0)" fill="rgb(66,97,31)" d="M 1372.6 1033.78 C 1393.96 1067.83 1388.19 1099.05 1360.47 1127.31 C 1360.25 1130.91 1360.11 1130.91 1361.11 1134.55 C 1362.75 1134.21 1369.27 1125.1 1370.97 1123.11 C 1377.13 1115.9 1383.66 1109.67 1390.56 1103.21 C 1387.39 1080.8 1412.4 1062.81 1432.38 1061 C 1443.89 1059.96 1453.04 1062.07 1463.29 1066.85 C 1452.06 1096.43 1427.61 1118.99 1393.73 1108.99 C 1382.73 1122.1 1374.61 1131.35 1365.49 1145.79 L 1367.03 1145.25 C 1377.85 1141.42 1381.23 1136.27 1390.5 1129.17 C 1406.75 1116.78 1428.51 1114.38 1447.08 1122.91 C 1457.99 1128.02 1463.65 1133.73 1470.77 1143.07 C 1442.04 1162.03 1401.35 1180.36 1372.18 1150.57 L 1360.71 1154.07 C 1352.64 1166.52 1341.54 1187.31 1336.22 1201.17 L 1347.8 1196.87 C 1368.35 1167.37 1407.12 1168.53 1434.49 1187.66 C 1436.98 1189.37 1439.38 1191.2 1441.68 1193.16 C 1435.97 1197.8 1430.19 1202.54 1424.27 1206.89 C 1404.27 1221.6 1368.55 1231.78 1350.4 1208.63 C 1349.49 1207.46 1348.61 1206.27 1347.77 1205.05 C 1342.37 1207.12 1337.35 1208.96 1332.17 1211.58 C 1321.03 1242.43 1315.52 1272.06 1319.36 1305.06 C 1316.07 1312.66 1315.85 1342.74 1316.11 1352.26 L 1316.79 1351.37 C 1333.19 1329.4 1351.06 1296.06 1374.46 1278.96 C 1359.18 1299.49 1331.54 1339.96 1324.89 1364.62 C 1320.79 1366.09 1316.62 1367.64 1312.51 1369.04 C 1303.58 1353.81 1296.07 1337.78 1290.07 1321.17 C 1290.9 1317.21 1292.27 1313.12 1293.47 1309.23 C 1289.7 1294.29 1287.86 1282.56 1285.72 1267.47 L 1288.97 1267.56 C 1291.84 1272.18 1294.53 1291.42 1298.11 1301.12 C 1300.49 1282.71 1307.95 1256.06 1309.2 1242.19 C 1313.36 1228.74 1319.8 1212.71 1321.85 1199.32 C 1322.09 1197.7 1320.7 1188.64 1320.38 1186.52 C 1279.11 1174 1293.12 1124.07 1307.57 1096.42 C 1330.85 1116.55 1342.11 1138.06 1332.59 1169.52 C 1330.32 1177.02 1324.08 1181.55 1325.44 1189.95 L 1326.83 1190.7 C 1332 1186.66 1334.31 1177.58 1337.69 1171.66 C 1343.19 1162.02 1349.01 1152.9 1354.99 1143.57 L 1354.46 1127.79 C 1345.35 1121.62 1341.3 1113.46 1339.25 1102.65 C 1335.98 1086.14 1339.56 1069 1349.18 1055.18 C 1355.72 1045.67 1362.63 1039.42 1372.6 1033.78 z"/>
<path transform="translate(0,0)" fill="rgb(66,97,31)" d="M 1668.33 1181.48 C 1670.04 1185.03 1668.74 1184.04 1671.61 1185.54 C 1670.77 1188.88 1667.04 1193.77 1664.96 1196.84 C 1679.5 1240.57 1647.34 1262.49 1616.61 1285.11 C 1610.04 1244.16 1610.26 1204.85 1659.7 1193.37 C 1663.19 1189.27 1666.09 1186.39 1668.33 1181.48 z"/>
<path transform="translate(0,0)" fill="rgb(16,119,132)" d="M 1705.21 1159.75 C 1713.3 1166.06 1719.93 1170.63 1728.4 1176.28 C 1729.92 1184.6 1732.7 1197.79 1736.02 1205.46 C 1742.5 1233.74 1750.23 1260.74 1756.93 1288.56 C 1757.2 1293.75 1758.3 1302.04 1756.04 1306.4 C 1753.2 1307.89 1754.74 1307.48 1751.18 1307.18 C 1737.29 1275.15 1723.38 1231.29 1713.71 1197.05 C 1711.99 1186.01 1707.94 1170.97 1705.21 1159.75 z"/>
<path transform="translate(0,0)" fill="rgb(8,59,38)" d="M 1285.35 1204.6 C 1297.6 1216.44 1303.75 1226.09 1309.2 1242.19 C 1307.95 1256.06 1300.49 1282.71 1298.11 1301.12 C 1294.53 1291.42 1291.84 1272.18 1288.97 1267.56 L 1285.72 1267.47 C 1282.24 1241.04 1283.35 1230.82 1285.35 1204.6 z"/>
<path transform="translate(0,0)" fill="rgb(9,46,27)" d="M 1513.71 1236.49 C 1524.15 1234.86 1543.9 1244.33 1552.39 1250.51 C 1562.21 1257.65 1566.37 1264.23 1567.37 1276.12 C 1576.21 1284.07 1588.11 1294.21 1596.14 1302.57 C 1593 1302.46 1592.9 1302.04 1589.92 1300.74 C 1584 1296.41 1569.46 1282.95 1562.49 1277.19 C 1557.22 1251.5 1534.83 1246.71 1512.91 1239.43 C 1511.41 1237.99 1511.08 1237.94 1509.14 1237.32 L 1507.34 1236.75 L 1508.06 1236.47 C 1510.86 1236.86 1511.59 1237.48 1513.71 1236.49 z"/>
<path transform="translate(0,0)" fill="rgb(25,61,29)" d="M 1491.08 1226.53 C 1504.19 1212.56 1510.66 1221.94 1513.71 1236.49 C 1511.59 1237.48 1510.86 1236.86 1508.06 1236.47 L 1506.87 1234.4 C 1502.02 1233.71 1496.71 1234.53 1493.7 1231.68 L 1495.13 1228.07 L 1491.08 1226.53 z"/>
<path transform="translate(0,0)" fill="rgb(248,171,24)" d="M 1495.13 1228.07 C 1500.87 1223.82 1506.55 1225.22 1508.09 1232.43 L 1506.87 1234.4 C 1502.02 1233.71 1496.71 1234.53 1493.7 1231.68 L 1495.13 1228.07 z"/>
<path transform="translate(0,0)" fill="rgb(9,46,27)" d="M 1756.93 1288.56 C 1759.62 1296.58 1762.54 1306.04 1765.77 1313.73 L 1761.8 1312.93 L 1761.53 1311.78 L 1758.67 1322.01 C 1755.47 1317.18 1753.53 1312.44 1751.18 1307.18 C 1754.74 1307.48 1753.2 1307.89 1756.04 1306.4 C 1758.3 1302.04 1757.2 1293.75 1756.93 1288.56 z"/>
<path transform="translate(0,0)" fill="rgb(255,255,254)" d="M 1470.77 923.211 C 1497.9 913.299 1520.33 906.443 1549.43 903.571 C 1681.97 890.489 1798.45 975.949 1842.22 1098.13 C 1871.17 1178.64 1867.15 1267.33 1831.03 1344.89 C 1830.62 1345.74 1830.21 1346.59 1829.79 1347.43 C 1827.06 1353.6 1825.11 1357.14 1821.72 1362.98 C 1819.98 1358.73 1815.07 1345.13 1812.42 1342.75 L 1810.31 1342.83 C 1805.87 1340.52 1800.8 1330.81 1804.19 1325.36 C 1810.23 1315.64 1801 1293.1 1798 1282.77 L 1775.84 1208.97 C 1784.47 1213.49 1827.54 1233.91 1835.04 1233.11 C 1852.03 1217.09 1813.72 1207.14 1802.23 1202.23 C 1797.8 1193.32 1793.78 1188.06 1787.86 1180.16 C 1786.95 1168.05 1779.85 1158.52 1774.34 1146.24 C 1765.75 1167.48 1732.14 1121.3 1727.55 1113.65 C 1727.03 1112.79 1730.12 1107.29 1730.68 1106.15 C 1728.34 1108.01 1724.95 1110.69 1723.48 1113.36 C 1714.25 1114.48 1711.51 1110.91 1703.89 1105.19 C 1700.11 1107.84 1698.27 1108.62 1693.95 1109.77 L 1693.03 1110 L 1693 1111.18 L 1691.42 1112.96 C 1702.18 1126.49 1712.83 1137.44 1725.33 1149.25 C 1727.19 1151 1727.38 1152.25 1727.67 1154.6 C 1716.53 1164.98 1692.78 1140.37 1684.41 1133.17 L 1682.45 1138.14 C 1688.3 1144.21 1696.1 1148.63 1698.76 1156.19 C 1698.25 1160.61 1699.18 1158.93 1696.67 1161.77 C 1682.39 1165.49 1651.62 1137.38 1642.35 1136.33 C 1645.42 1139.31 1647.56 1140.4 1648.61 1144.08 C 1641.48 1148.74 1634.5 1142.06 1625.39 1148.69 C 1617.01 1146.15 1586.29 1136.32 1579.79 1135.78 C 1574.25 1142.03 1579.6 1142.59 1569.48 1146.69 C 1568.33 1147.15 1567.18 1147.6 1566.03 1148.04 C 1554.09 1123.29 1541.88 1091.74 1530.86 1065.76 L 1470.77 923.211 z"/>
<path transform="translate(0,0)" fill="rgb(220,93,20)" d="M 1567.87 955.515 C 1575.98 946.403 1584.53 940.501 1596.79 938.515 C 1613.22 935.94 1630 939.863 1643.59 949.454 C 1660.17 961.407 1668.22 977.884 1675.64 996.323 C 1678.17 1002.6 1681.18 1008.56 1682.31 1015.19 C 1704.04 1024.07 1713.56 1033.87 1726.82 1052.76 C 1735.67 1064.34 1749.37 1087.7 1753.98 1101.45 C 1757.16 1107.96 1758.89 1112.01 1761.38 1118.82 C 1765.84 1127.89 1770.16 1137.03 1774.34 1146.24 C 1765.75 1167.48 1732.14 1121.3 1727.55 1113.65 C 1727.03 1112.79 1730.12 1107.29 1730.68 1106.15 C 1728.34 1108.01 1724.95 1110.69 1723.48 1113.36 C 1714.25 1114.48 1711.51 1110.91 1703.89 1105.19 C 1700.11 1107.84 1698.27 1108.62 1693.95 1109.77 L 1693.03 1110 L 1693 1111.18 L 1691.42 1112.96 C 1702.18 1126.49 1712.83 1137.44 1725.33 1149.25 C 1727.19 1151 1727.38 1152.25 1727.67 1154.6 C 1716.53 1164.98 1692.78 1140.37 1684.41 1133.17 L 1682.45 1138.14 C 1688.3 1144.21 1696.1 1148.63 1698.76 1156.19 C 1698.25 1160.61 1699.18 1158.93 1696.67 1161.77 C 1682.39 1165.49 1651.62 1137.38 1642.35 1136.33 C 1617.14 1115.51 1598.3 1079.55 1599.41 1046.53 C 1599.77 1035.83 1602.04 1023.93 1603.77 1013.28 C 1624.4 1004.89 1627.31 996.474 1626.08 975.8 C 1625.93 973.323 1629.53 971.546 1631.38 970.246 C 1616.35 948.808 1601.45 948.36 1579.96 960.118 C 1575.03 957.261 1573.45 956.973 1567.87 955.515 z"/>
<path transform="translate(0,0)" fill="rgb(248,171,24)" d="M 1640.46 1038.12 C 1648.16 1049.49 1648.91 1053.44 1663.05 1053.89 C 1665.59 1056.62 1668.06 1059.91 1671.43 1061.13 C 1674.42 1060.85 1674.34 1060.67 1677.02 1059.2 C 1682.71 1062.29 1679.63 1063.22 1685.13 1064.29 C 1688.09 1063.18 1687.96 1063.16 1690.45 1061.14 C 1694.82 1063.56 1695.07 1066.36 1699.94 1067.14 C 1704.3 1066.01 1703.95 1065.29 1706.23 1061.11 C 1710.71 1061.73 1710.21 1064.84 1715.53 1065.22 C 1720.25 1063.02 1719.25 1061.09 1719.25 1055.98 L 1720.21 1054.73 C 1724.74 1054.39 1723.74 1055.13 1726.82 1052.76 C 1735.67 1064.34 1749.37 1087.7 1753.98 1101.45 C 1757.16 1107.96 1758.89 1112.01 1761.38 1118.82 C 1765.84 1127.89 1770.16 1137.03 1774.34 1146.24 C 1765.75 1167.48 1732.14 1121.3 1727.55 1113.65 C 1727.03 1112.79 1730.12 1107.29 1730.68 1106.15 C 1728.34 1108.01 1724.95 1110.69 1723.48 1113.36 C 1714.25 1114.48 1711.51 1110.91 1703.89 1105.19 C 1700.11 1107.84 1698.27 1108.62 1693.95 1109.77 L 1693.03 1110 L 1693 1111.18 L 1691.42 1112.96 C 1702.18 1126.49 1712.83 1137.44 1725.33 1149.25 C 1727.19 1151 1727.38 1152.25 1727.67 1154.6 C 1716.53 1164.98 1692.78 1140.37 1684.41 1133.17 C 1678.04 1126.31 1671.53 1118.29 1665.45 1111.08 C 1666.38 1114.41 1666.64 1112.99 1665.76 1115.75 L 1666.36 1114.81 L 1666.11 1116.08 L 1665.39 1115.49 C 1663.18 1113.68 1663.54 1113.52 1660.99 1112.97 C 1657.51 1109.6 1654.52 1103.55 1652.3 1099.19 C 1652.69 1096.14 1650.23 1096.46 1651.6 1092.82 C 1654.34 1094.07 1654.67 1094.04 1657.67 1094.62 C 1656.44 1093.47 1656.93 1093.87 1655.66 1092.9 L 1654.8 1092.25 L 1655.29 1090.42 C 1654.61 1089.17 1650.55 1083.95 1649.33 1081.93 C 1641.99 1069.68 1640.56 1062.29 1639.27 1048.41 L 1640.46 1038.12 z"/>
<path transform="translate(0,0)" fill="rgb(16,119,132)" d="M 1665.45 1111.08 C 1662.88 1106.86 1661.56 1104.74 1658.43 1100.95 L 1658.55 1099.88 C 1666.21 1101.03 1670.28 1102.6 1677.08 1099.3 C 1681.25 1101.19 1688.1 1109.29 1691.42 1112.96 C 1702.18 1126.49 1712.83 1137.44 1725.33 1149.25 C 1727.19 1151 1727.38 1152.25 1727.67 1154.6 C 1716.53 1164.98 1692.78 1140.37 1684.41 1133.17 C 1678.04 1126.31 1671.53 1118.29 1665.45 1111.08 z"/>
<path transform="translate(0,0)" fill="rgb(16,119,132)" d="M 1730.68 1106.15 C 1742.13 1111.94 1739.54 1118.6 1755.15 1109.69 C 1757.2 1112.99 1758.99 1118.45 1761.07 1119.02 L 1761.38 1118.82 C 1765.84 1127.89 1770.16 1137.03 1774.34 1146.24 C 1765.75 1167.48 1732.14 1121.3 1727.55 1113.65 C 1727.03 1112.79 1730.12 1107.29 1730.68 1106.15 z"/>
<path transform="translate(0,0)" fill="rgb(9,46,27)" d="M 1655.29 1090.42 C 1663.75 1096.67 1667.67 1099.21 1673.2 1088.66 C 1679.91 1091.37 1680.28 1105.04 1695.96 1105.04 C 1700.84 1102.66 1700.24 1101.94 1700.39 1096.55 C 1703.15 1099.15 1709.9 1105.99 1712.88 1107.63 C 1721.29 1112.26 1728.88 1108.62 1725.75 1097.98 C 1734.1 1098.5 1741.56 1120.27 1753.98 1101.45 C 1757.16 1107.96 1758.89 1112.01 1761.38 1118.82 L 1761.07 1119.02 C 1758.99 1118.45 1757.2 1112.99 1755.15 1109.69 C 1739.54 1118.6 1742.13 1111.94 1730.68 1106.15 C 1728.34 1108.01 1724.95 1110.69 1723.48 1113.36 C 1714.25 1114.48 1711.51 1110.91 1703.89 1105.19 C 1700.11 1107.84 1698.27 1108.62 1693.95 1109.77 L 1693.03 1110 L 1693 1111.18 L 1691.42 1112.96 C 1688.1 1109.29 1681.25 1101.19 1677.08 1099.3 C 1670.28 1102.6 1666.21 1101.03 1658.55 1099.88 L 1658.43 1100.95 C 1661.56 1104.74 1662.88 1106.86 1665.45 1111.08 C 1666.38 1114.41 1666.64 1112.99 1665.76 1115.75 L 1666.36 1114.81 L 1666.11 1116.08 L 1665.39 1115.49 C 1663.18 1113.68 1663.54 1113.52 1660.99 1112.97 C 1657.51 1109.6 1654.52 1103.55 1652.3 1099.19 C 1652.69 1096.14 1650.23 1096.46 1651.6 1092.82 C 1654.34 1094.07 1654.67 1094.04 1657.67 1094.62 C 1656.44 1093.47 1656.93 1093.87 1655.66 1092.9 L 1654.8 1092.25 L 1655.29 1090.42 z"/>
<path transform="translate(0,0)" fill="rgb(25,61,29)" d="M 1636.23 1043.82 L 1639.27 1048.41 C 1640.56 1062.29 1641.99 1069.68 1649.33 1081.93 C 1650.55 1083.95 1654.61 1089.17 1655.29 1090.42 L 1654.8 1092.25 L 1655.66 1092.9 C 1656.93 1093.87 1656.44 1093.47 1657.67 1094.62 C 1654.67 1094.04 1654.34 1094.07 1651.6 1092.82 C 1650.23 1096.46 1652.69 1096.14 1652.3 1099.19 C 1641.72 1090.38 1635.29 1057.42 1636.23 1043.82 z"/>
<path transform="translate(0,0)" fill="rgb(17,25,7)" d="M 1636.23 1043.82 C 1638.05 1026.2 1658.34 1003.75 1674.56 1014.41 C 1657.34 1017.93 1646.61 1017.68 1640.46 1038.12 L 1639.27 1048.41 L 1636.23 1043.82 z"/>
<path transform="translate(0,0)" fill="rgb(8,59,38)" d="M 1665.45 1111.08 C 1671.53 1118.29 1678.04 1126.31 1684.41 1133.17 L 1682.45 1138.14 C 1674.33 1130.02 1667.2 1122.68 1660.99 1112.97 C 1663.54 1113.52 1663.18 1113.68 1665.39 1115.49 L 1666.11 1116.08 L 1666.36 1114.81 L 1665.76 1115.75 C 1666.64 1112.99 1666.38 1114.41 1665.45 1111.08 z"/>
<path transform="translate(0,0)" fill="rgb(8,59,38)" d="M 1627.8 1029.26 C 1626.68 1039.14 1609.05 1059.65 1610.82 1073.64 C 1611 1075.05 1610.08 1076.99 1608.71 1077.85 L 1607.18 1075.8 C 1595.41 1035.3 1602.98 1049.37 1626.61 1030.24 L 1627.8 1029.26 z"/>
<path transform="translate(0,0)" fill="rgb(66,97,31)" d="M 1812.42 1342.75 C 1814.52 1337.15 1818.28 1326.24 1820.86 1321.38 C 1824.31 1330.48 1827.22 1337.99 1829.79 1347.43 C 1827.06 1353.6 1825.11 1357.14 1821.72 1362.98 C 1819.98 1358.73 1815.07 1345.13 1812.42 1342.75 z"/>
<path transform="translate(0,0)" fill="rgb(66,97,31)" d="M 1808.84 1074.45 C 1835.9 1095.36 1848.2 1151.04 1845.05 1183.43 C 1844.79 1186.01 1844.75 1187.38 1842.7 1188.88 L 1839.49 1186.81 C 1796.88 1158.58 1786.62 1121.3 1808.84 1074.45 z"/>
<path transform="translate(0,0)" fill="rgb(8,59,38)" d="M 1567.53 958.725 C 1582.96 964.282 1579.17 970.631 1587.81 982.109 C 1593.01 989.03 1605.22 996.02 1603.16 1007.81 C 1601.1 1019.59 1577.15 1013.45 1573.46 1005.82 C 1578.7 1001.58 1580.91 1000.13 1584.79 994.602 C 1586.67 991.433 1586.75 992.743 1586.26 990.164 C 1582.12 992.703 1573.63 1001.82 1569.77 1005.73 C 1569.06 1012.31 1569.25 1016.73 1569.43 1023.33 C 1568.47 1022.52 1567.53 1021.7 1566.59 1020.87 C 1546.24 1002.81 1550.02 977.227 1567.53 958.725 z"/>
<path transform="translate(0,0)" fill="rgb(8,59,38)" d="M 1605.47 959.6 C 1607.79 959.431 1609.89 960.986 1610.4 963.257 C 1610.91 965.528 1609.68 967.831 1607.51 968.672 C 1605.79 969.339 1603.83 968.936 1602.52 967.641 C 1601.2 966.347 1600.76 964.401 1601.4 962.667 C 1602.04 960.934 1603.63 959.734 1605.47 959.6 z"/>
<path transform="translate(0,0)" fill="rgb(237,159,38)" d="M 1446.71 1245.45 C 1447.12 1242.42 1449.75 1235.5 1452.17 1233.75 C 1462.83 1226.05 1476.11 1245.99 1480.66 1252.38 L 1481.84 1252.48 L 1482.71 1249.99 C 1482.17 1245.76 1480.07 1242.99 1477.89 1239.24 C 1492.61 1237.77 1498.16 1237.76 1512.91 1239.43 C 1534.83 1246.71 1557.22 1251.5 1562.49 1277.19 C 1569.46 1282.95 1584 1296.41 1589.92 1300.74 C 1593.11 1303.88 1597.04 1307.54 1599.94 1310.84 C 1594.61 1311.46 1582.07 1312.27 1577.75 1313.87 C 1576.75 1317.25 1578.79 1318.68 1581.17 1321.19 C 1598.31 1335.45 1583.55 1344.35 1568.53 1348.43 C 1561.08 1348.54 1555.32 1349.02 1551.17 1341.94 L 1548.25 1339 C 1546.18 1336.16 1546.25 1337.4 1546.29 1334.78 L 1548.98 1333.98 L 1547.92 1330.6 C 1545.6 1328.2 1546.29 1329.66 1546.29 1325.87 L 1546.24 1323.71 C 1539.45 1330.36 1539.41 1331.01 1530.1 1333.42 L 1529.19 1334.68 C 1532.12 1334.82 1534.28 1334.84 1537.22 1334.79 L 1537.81 1335.64 C 1532.89 1339.94 1529.63 1338.39 1526.18 1342.23 C 1529.56 1341.71 1533.46 1340.74 1536.59 1341.7 C 1534.37 1344.28 1530.08 1345.13 1526.9 1346.92 C 1522 1344.24 1512.65 1349.45 1503.79 1348.69 C 1499.11 1350.61 1492.97 1353.12 1488.79 1355.85 C 1465.03 1347.81 1460.54 1329.51 1460.98 1307.02 C 1455.98 1319.82 1456.57 1329.95 1461.75 1342.9 C 1463.85 1348.17 1471.54 1357.8 1476.64 1359.97 C 1484.07 1366.74 1477.35 1376.43 1486.59 1381.45 C 1489.69 1379.19 1489.25 1371.37 1489.41 1367.49 C 1494.17 1368.07 1497.57 1368.99 1502.42 1369.2 C 1485.46 1401.98 1486.42 1430.21 1496.89 1465.7 C 1499.42 1474.28 1499.9 1471.73 1499.01 1481.01 C 1501.05 1485.02 1503.83 1487.64 1505.42 1490.9 C 1509.1 1498.46 1512.09 1507.9 1514.87 1515.91 C 1503.24 1513.79 1491.75 1510.99 1480.46 1507.52 C 1405.54 1481.42 1358.84 1442.88 1316.55 1376.24 C 1342.37 1366.91 1372.54 1343.14 1388.11 1320.75 C 1405.74 1295.41 1418.8 1278.63 1442.63 1258.03 C 1442.58 1257.35 1442.97 1256.72 1443.17 1256.07 L 1443.84 1256.4 C 1444.28 1251.98 1444.06 1248.87 1446.71 1245.45 z"/>
<path transform="translate(0,0)" fill="rgb(255,255,254)" d="M 1476.64 1359.97 C 1484.07 1366.74 1477.35 1376.43 1486.59 1381.45 C 1489.69 1379.19 1489.25 1371.37 1489.41 1367.49 C 1494.17 1368.07 1497.57 1368.99 1502.42 1369.2 C 1485.46 1401.98 1486.42 1430.21 1496.89 1465.7 C 1499.42 1474.28 1499.9 1471.73 1499.01 1481.01 C 1501.05 1485.02 1503.83 1487.64 1505.42 1490.9 C 1509.1 1498.46 1512.09 1507.9 1514.87 1515.91 C 1503.24 1513.79 1491.75 1510.99 1480.46 1507.52 C 1478.37 1478.66 1470.11 1443.27 1466.93 1411.01 L 1467.06 1408.83 C 1467.29 1404.65 1467.24 1397.2 1468.89 1393.73 L 1471.53 1394.03 L 1472.87 1392.61 C 1473.97 1387.25 1471.93 1385.53 1471.47 1379.93 L 1471.34 1378.16 C 1475 1374.91 1475.84 1365.02 1476.64 1359.97 z"/>
<path transform="translate(0,0)" fill="rgb(8,59,38)" d="M 1474.71 1409.32 C 1475.81 1409.51 1477.57 1410.09 1478.7 1410.42 C 1484.4 1415.68 1483.79 1419.82 1480.4 1426.32 L 1477.64 1425.7 C 1471.65 1420.84 1472.18 1416.05 1474.71 1409.32 z"/>
<path transform="translate(0,0)" fill="rgb(9,46,27)" d="M 1481.79 1442.29 C 1490.44 1444.25 1490.5 1452.11 1487.58 1458.92 C 1485.25 1458.99 1486.07 1459.02 1483.76 1458.26 C 1478.54 1453.48 1479.26 1448.22 1481.79 1442.29 z"/>
<path transform="translate(0,0)" fill="rgb(8,59,38)" d="M 1485.88 1478.27 C 1489.94 1479.31 1489.89 1479.71 1491.7 1482.54 C 1492.23 1487.07 1491.5 1488.34 1490.15 1492.86 C 1482.37 1489.58 1483.2 1484.72 1485.88 1478.27 z"/>
<path transform="translate(0,0)" fill="rgb(255,255,254)" d="M 1568.5 1345.9 C 1578.14 1333.85 1574.39 1328.07 1581.17 1321.19 C 1598.31 1335.45 1583.55 1344.35 1568.53 1348.43 L 1568.5 1345.9 z"/>
<path transform="translate(0,0)" fill="rgb(25,61,29)" d="M 1442.63 1258.03 C 1442.58 1257.35 1442.97 1256.72 1443.17 1256.07 L 1443.84 1256.4 C 1444.28 1251.98 1444.06 1248.87 1446.71 1245.45 C 1446.97 1256.93 1446.19 1265.97 1453.4 1275.32 L 1457.47 1280.67 C 1457 1283.49 1457.39 1282.54 1455.99 1284.99 L 1452.88 1285.83 C 1443.19 1279.64 1441.87 1268.33 1442.63 1258.03 z"/>
<path transform="translate(0,0)" fill="rgb(9,46,27)" d="M 1466.93 1411.01 C 1464.62 1414.94 1462.69 1417.84 1458.49 1419.39 C 1451.16 1418.04 1451.86 1409.98 1454.3 1404.66 C 1457.49 1402.07 1455.72 1402.73 1459.75 1402.52 C 1463.59 1403.92 1464.34 1405.51 1467.06 1408.83 L 1466.93 1411.01 z"/>
<path transform="translate(0,0)" fill="rgb(248,171,24)" d="M 1508.91 1340.77 C 1514.51 1340.5 1519.93 1339.24 1524.98 1340.26 C 1526.15 1341.87 1525.9 1341.14 1526.18 1342.23 C 1529.56 1341.71 1533.46 1340.74 1536.59 1341.7 C 1534.37 1344.28 1530.08 1345.13 1526.9 1346.92 C 1522 1344.24 1512.65 1349.45 1503.79 1348.69 L 1503.82 1348.41 C 1507.72 1345.53 1507.62 1345.16 1508.91 1340.77 z"/>
<path transform="translate(0,0)" fill="rgb(9,46,27)" d="M 1468.89 1393.73 C 1465.58 1388.5 1458.49 1377 1467.7 1373.27 C 1470.94 1375.34 1469.53 1373.99 1471.34 1378.16 L 1471.47 1379.93 C 1471.93 1385.53 1473.97 1387.25 1472.87 1392.61 L 1471.53 1394.03 L 1468.89 1393.73 z"/>
<path transform="translate(0,0)" fill="rgb(248,171,24)" d="M 1546.29 1325.87 L 1566.02 1327.43 L 1567.41 1329.69 L 1566.94 1331.07 L 1567.74 1333.01 C 1564.73 1335.21 1558.68 1334.55 1554.49 1334.53 L 1548.98 1333.98 L 1547.92 1330.6 C 1545.6 1328.2 1546.29 1329.66 1546.29 1325.87 z"/>
<path transform="translate(0,0)" fill="rgb(41,43,8)" d="M 1547.92 1330.6 C 1554.13 1330.77 1560.77 1331.07 1566.94 1331.07 L 1567.74 1333.01 C 1564.73 1335.21 1558.68 1334.55 1554.49 1334.53 L 1548.98 1333.98 L 1547.92 1330.6 z"/>
<path transform="translate(0,0)" fill="rgb(248,171,24)" d="M 1548.25 1339 L 1555.47 1338.61 C 1558.29 1338.65 1562.32 1338.22 1564.31 1339.52 L 1564.05 1340.26 C 1565.64 1342.47 1566.55 1343.98 1568.5 1345.9 L 1568.53 1348.43 C 1561.08 1348.54 1555.32 1349.02 1551.17 1341.94 L 1548.25 1339 z"/>
<path transform="translate(0,0)" fill="rgb(17,25,7)" d="M 1548.25 1339 L 1555.47 1338.61 C 1558.29 1338.65 1562.32 1338.22 1564.31 1339.52 L 1564.05 1340.26 C 1558.94 1341.31 1556.39 1341.59 1551.17 1341.94 L 1548.25 1339 z"/>
<path transform="translate(0,0)" fill="rgb(17,25,7)" d="M 1503.82 1348.41 C 1499.99 1347.28 1499.88 1346.97 1498.21 1344.28 C 1498.78 1340.91 1498.06 1342.45 1501.12 1339.87 C 1504.78 1338.82 1505.39 1339.37 1508.91 1340.77 C 1507.62 1345.16 1507.72 1345.53 1503.82 1348.41 z"/>
<path transform="translate(0,0)" fill="rgb(17,25,7)" d="M 1546.24 1323.71 C 1551.72 1322.22 1561.76 1323.25 1567.18 1324.67 L 1568.17 1325.87 C 1567.61 1326.3 1566.6 1327.16 1566.02 1327.43 L 1546.29 1325.87 L 1546.24 1323.71 z"/>
<path transform="translate(0,0)" fill="rgb(248,171,24)" d="M 1548.98 1333.98 L 1554.49 1334.53 C 1558.04 1334.73 1561.37 1334.45 1564.22 1336.33 C 1561.96 1338.31 1558.85 1338.18 1555.47 1338.61 L 1548.25 1339 C 1546.18 1336.16 1546.25 1337.4 1546.29 1334.78 L 1548.98 1333.98 z"/>
<path transform="translate(0,0)" fill="rgb(8,59,38)" d="M 1406.91 1382.63 C 1415.22 1385.98 1412.5 1387.9 1418.65 1392.38 L 1420.56 1392.37 C 1436.38 1392.5 1443.24 1409.38 1430.9 1421.26 C 1418.82 1421.56 1399.98 1407.09 1399.57 1394.04 C 1399.41 1388.75 1403.19 1385.8 1406.91 1382.63 z"/>
<path transform="translate(0,0)" fill="rgb(8,59,38)" d="M 1384.27 1343.74 C 1386.49 1344.13 1392.97 1346 1392.52 1348.71 C 1389.61 1366.4 1398.55 1374.37 1378.29 1380.32 C 1372.31 1379.44 1366.65 1373.24 1367.62 1366.87 C 1369.24 1356.29 1376.61 1350.16 1384.27 1343.74 z"/>
<path transform="translate(0,0)" fill="rgb(8,59,38)" d="M 1434.31 1435.75 C 1453.13 1437.02 1448.76 1459.9 1435.86 1470.08 C 1427.45 1470.03 1427.45 1468.07 1423 1461.43 C 1422.17 1446.82 1423.43 1444.77 1434.31 1435.75 z"/>
<path transform="translate(0,0)" fill="rgb(8,59,38)" d="M 1372.1 1396.98 C 1379.61 1396.44 1383.65 1397.64 1387.51 1404.72 C 1389.68 1408.74 1390.06 1413.49 1388.55 1417.8 C 1386.86 1422.46 1384.49 1423.61 1380.35 1425.73 C 1360.93 1424.51 1355.47 1407.08 1372.1 1396.98 z"/>
<path transform="translate(0,0)" fill="rgb(8,59,38)" d="M 1444.69 1346.5 C 1452.39 1351.22 1450.48 1356.6 1449.61 1364.48 C 1456.22 1374.76 1461.41 1382.9 1448.7 1390.54 C 1447.42 1389.65 1446.18 1388.71 1444.96 1387.74 C 1433.22 1378.16 1435.8 1357.41 1444.69 1346.5 z"/>
<path transform="translate(0,0)" fill="rgb(8,59,38)" d="M 1538.23 1273.53 C 1541.67 1275.44 1553.43 1295.62 1555.37 1300.32 L 1550.47 1295.98 C 1545.12 1291.18 1544.33 1291.16 1537.2 1292.48 C 1527.87 1289.44 1521.73 1284.3 1511.99 1281.85 C 1523.48 1276.28 1525.65 1275.38 1538.23 1273.53 z"/>
<path transform="translate(0,0)" fill="rgb(8,59,38)" d="M 1416.11 1342.56 C 1429.8 1344.27 1429.34 1362.68 1417.64 1370.72 C 1403.43 1369.53 1406.03 1350.98 1416.11 1342.56 z"/>
<path transform="translate(0,0)" fill="rgb(9,46,27)" d="M 1399.51 1429.69 C 1406.88 1429.35 1413.26 1432.19 1411.94 1441.04 C 1410.93 1447.8 1407.89 1449.57 1402.61 1453.39 L 1399.64 1454.46 C 1398.09 1454.12 1396.31 1454.11 1395.44 1452.94 C 1389.11 1444.49 1393.25 1435.26 1399.51 1429.69 z"/>
<path transform="translate(0,0)" fill="rgb(8,59,38)" d="M 1350.7 1369.56 C 1364.49 1371.61 1358.83 1390.69 1346.43 1396.46 C 1344.2 1395.56 1342.5 1395.06 1340.83 1393.24 C 1338.78 1391.01 1337.91 1387.93 1338.48 1384.96 C 1339.89 1377.65 1345.22 1373.6 1350.7 1369.56 z"/>
<path transform="translate(0,0)" fill="rgb(8,59,38)" d="M 1439.76 1302.42 C 1446.4 1304.78 1445.64 1311 1444.82 1317.32 C 1443.74 1325.59 1442.57 1328.85 1435.89 1334.03 C 1423.76 1325.54 1431.49 1310.61 1439.76 1302.42 z"/>
<path transform="translate(0,0)" fill="rgb(9,46,27)" d="M 1461.31 1461.54 C 1472.42 1461.61 1478.4 1477.93 1467.77 1484.32 C 1453.27 1480.91 1452.02 1472.26 1461.31 1461.54 z"/>
<path transform="translate(0,0)" fill="rgb(25,61,29)" d="M 1456.64 1242.09 C 1465.62 1244.64 1466.87 1250.46 1469.78 1258.47 C 1468.87 1262.86 1467.42 1267.28 1466.12 1271.58 C 1464.71 1271.59 1464.56 1271.22 1463.07 1270.48 C 1459.04 1265.92 1457.33 1251.66 1455.26 1244.51 L 1456.64 1242.09 z"/>
<path transform="translate(0,0)" fill="rgb(9,46,27)" d="M 1407.6 1313.6 C 1411.46 1314.99 1412.87 1317.95 1413.56 1321.62 C 1411.71 1328.25 1408.81 1330.1 1403.71 1334.58 C 1401.02 1334.52 1401.76 1334.37 1399.03 1332.72 C 1394.87 1325.03 1402 1318.14 1407.6 1313.6 z"/>
<path transform="translate(0,0)" fill="rgb(25,61,29)" d="M 1451.18 1427.8 C 1463.82 1427.02 1470.08 1438.44 1466.8 1449.85 C 1459.89 1448.22 1452.12 1434.85 1451.18 1427.8 z"/>
<path transform="translate(0,0)" fill="rgb(25,61,29)" d="M 1426.73 1287.43 L 1429.36 1289.23 C 1432.96 1296.65 1424.98 1304.03 1419.1 1307.36 C 1408.27 1302.1 1421.77 1291.55 1426.73 1287.43 z"/>
<path transform="translate(0,0)" fill="rgb(9,46,27)" d="M 1480.96 1303.52 C 1485.96 1304.22 1487.48 1304.3 1488.74 1309.43 C 1487.73 1313.79 1486.72 1314.25 1483.36 1317.56 C 1481.09 1317.42 1480.82 1317.18 1478.6 1316.54 C 1473.52 1311.6 1477.07 1307.81 1480.96 1303.52 z"/>
<path transform="translate(0,0)" fill="rgb(9,46,27)" d="M 1483.89 1326.77 C 1486 1325.62 1488.59 1325.77 1490.55 1327.17 C 1492.51 1328.57 1493.49 1330.97 1493.08 1333.34 C 1492.67 1335.71 1490.94 1337.64 1488.63 1338.3 C 1485.56 1339.18 1482.31 1337.61 1481.1 1334.66 C 1479.89 1331.7 1481.09 1328.31 1483.89 1326.77 z"/>
<path transform="translate(0,0)" fill="rgb(25,61,29)" d="M 1501.23 1313.58 C 1504.09 1312.49 1507.31 1313.88 1508.49 1316.7 C 1509.67 1319.53 1508.4 1322.79 1505.62 1324.07 C 1503.73 1324.94 1501.52 1324.71 1499.85 1323.47 C 1498.18 1322.23 1497.32 1320.17 1497.61 1318.11 C 1497.89 1316.06 1499.28 1314.32 1501.23 1313.58 z"/>
<path transform="translate(0,0)" fill="rgb(17,25,7)" d="M 1504.77 1288.37 C 1508.57 1290.05 1509.17 1290.86 1510.3 1294.51 C 1509.65 1298.45 1508.86 1298.81 1506.05 1301.6 C 1501.38 1300.73 1500.61 1300.48 1499.79 1296.07 C 1500.96 1291.99 1501.74 1291.58 1504.77 1288.37 z"/>
<path transform="translate(0,0)" fill="rgb(17,25,7)" d="M 1519.08 1302.37 C 1521.65 1301.58 1524.39 1302.93 1525.33 1305.45 C 1526.27 1307.98 1525.08 1310.79 1522.62 1311.88 C 1520.89 1312.63 1518.89 1312.37 1517.41 1311.2 C 1515.94 1310.03 1515.23 1308.14 1515.58 1306.28 C 1515.93 1304.43 1517.28 1302.93 1519.08 1302.37 z"/>
<path transform="translate(0,0)" fill="rgb(25,61,29)" d="M 1506.55 1260.47 C 1510.02 1261.01 1511.9 1260.99 1514.06 1263.57 C 1513.86 1267.18 1514.32 1265.38 1511.4 1268.83 C 1507.56 1268.64 1507.31 1268.55 1504.62 1266.57 C 1504.17 1263.06 1504.25 1264.24 1506.55 1260.47 z"/>
<path transform="translate(0,0)" fill="rgb(25,61,29)" d="M 1537.26 1261.02 C 1544.91 1260.71 1547.56 1264.59 1549.14 1271.49 C 1544.36 1270.79 1538.39 1265.77 1537.26 1261.02 z"/>
<path transform="translate(0,0)" fill="rgb(255,255,254)" d="M 751.655 1022.78 C 757.115 1026.46 767.128 1044.99 770.937 1051.87 C 801.135 1106.46 813.318 1165.59 811.051 1227.67 L 678.861 1192.95 C 650.405 1184.06 612.338 1175.08 582.969 1167.13 C 636.677 1119.76 696.364 1068.28 751.655 1022.78 z"/>
<path transform="translate(0,0)" fill="rgb(220,93,20)" d="M 1735.43 1190.13 C 1734.67 1187.72 1732.48 1182.32 1733.13 1180.48 C 1738.26 1182.38 1759.45 1195.3 1765.62 1199.1 C 1773.77 1223.3 1781.78 1247.55 1789.65 1271.84 C 1792.43 1280.61 1801.24 1300.66 1797.58 1308.57 L 1796.04 1309.11 C 1786.96 1303.82 1780.63 1280.01 1774.53 1270.72 C 1783.43 1302.7 1798.57 1352.48 1809.52 1383.59 C 1806.53 1388.13 1803.41 1393.1 1800.2 1397.44 C 1790.91 1383.39 1779.63 1349.83 1773.09 1333.29 C 1771.07 1328.18 1768.08 1318.09 1765.77 1313.73 C 1762.54 1306.04 1759.62 1296.58 1756.93 1288.56 C 1750.23 1260.74 1742.5 1233.74 1736.02 1205.46 C 1735.32 1200.82 1733.78 1194.18 1735.43 1190.13 z"/>
<path transform="translate(0,0)" fill="rgb(16,119,132)" d="M 1735.43 1190.13 C 1734.67 1187.72 1732.48 1182.32 1733.13 1180.48 C 1738.26 1182.38 1759.45 1195.3 1765.62 1199.1 C 1773.77 1223.3 1781.78 1247.55 1789.65 1271.84 C 1792.43 1280.61 1801.24 1300.66 1797.58 1308.57 L 1796.04 1309.11 C 1786.96 1303.82 1780.63 1280.01 1774.53 1270.72 C 1769.45 1257.63 1761.69 1246.99 1755.14 1234.67 C 1747.51 1220.3 1740.95 1205.41 1735.43 1190.13 z"/>
<path transform="translate(0,0)" fill="rgb(66,97,31)" d="M 1683.03 1397.24 C 1690.38 1402.64 1699.49 1411.98 1705.93 1415.62 C 1711.38 1419.82 1736.6 1449.26 1740.74 1455.98 L 1741.77 1458.87 C 1732.8 1466.31 1723.42 1471.7 1714.11 1478.72 C 1711.31 1466.81 1708.38 1456.36 1703.62 1445.06 C 1697.68 1430.98 1686.11 1411.9 1683.03 1397.24 z"/>
<path transform="translate(0,0)" fill="rgb(66,97,31)" d="M 1600.38 1450.04 C 1598.87 1447.85 1599.23 1448.73 1598.58 1446.16 C 1601.52 1445.05 1607.1 1446.75 1611.31 1447.25 C 1614.13 1448.28 1616.14 1448.21 1618.76 1446.9 C 1628.2 1453.72 1638.38 1461.32 1648.79 1466.49 C 1652.57 1468.76 1680 1491.06 1684.07 1494.49 C 1677.22 1497.2 1670.25 1500.2 1663.43 1503.04 C 1642.33 1483.89 1623.12 1472.08 1600.38 1450.04 z"/>
<path transform="translate(0,0)" fill="rgb(66,97,31)" d="M 1545.39 1439.84 C 1551.49 1445.22 1618.11 1513.11 1618.88 1515.31 L 1616.8 1516.37 C 1609.31 1517.66 1602.18 1518.52 1594.62 1519.42 C 1575.16 1499.28 1570.13 1483 1558.02 1457.99 C 1555.22 1452.21 1546.26 1445.27 1545.39 1439.84 z"/>
<path transform="translate(0,0)" fill="rgb(16,119,132)" d="M 1733.58 1156.3 C 1741.04 1155.16 1803.74 1192.27 1796.32 1205.61 C 1792.95 1206.24 1790.7 1204.95 1787.41 1203.74 C 1773.84 1196.95 1730.52 1169.98 1718.98 1161.27 C 1726.48 1160.87 1728.66 1161.66 1733.58 1156.3 z"/>
<path transform="translate(0,0)" fill="rgb(16,119,132)" d="M 1693 1111.18 L 1693.03 1110 L 1693.95 1109.77 C 1698.27 1108.62 1700.11 1107.84 1703.89 1105.19 C 1711.51 1110.91 1714.25 1114.48 1723.48 1113.36 C 1728.95 1119.89 1752.8 1145.39 1744.62 1152.61 C 1729.49 1155.46 1701.82 1122.08 1693 1111.18 z"/>
<path transform="translate(0,0)" fill="rgb(255,255,254)" d="M 1538.42 1346.74 L 1540.56 1345.75 C 1543.44 1347.73 1544.17 1348.4 1546.75 1350.81 C 1544.45 1352.37 1542.2 1353.98 1539.99 1355.66 C 1540.84 1358.75 1540.22 1357.28 1543.63 1359.77 C 1548.76 1359.45 1547.02 1356.45 1552.06 1355.71 C 1563.14 1354.08 1568.95 1355.75 1579.83 1351.98 L 1580.81 1352.78 C 1579.67 1365.46 1573.21 1371.74 1560 1369.53 C 1548.05 1367.52 1537.13 1358.62 1525.03 1356.47 C 1511.01 1354.22 1504.24 1359.95 1488.79 1355.85 C 1492.97 1353.12 1499.11 1350.61 1503.79 1348.69 C 1512.65 1349.45 1522 1344.24 1526.9 1346.92 C 1531.39 1351.38 1532.76 1349.4 1538.42 1346.74 z"/>
<path transform="translate(0,0)" fill="rgb(41,43,8)" d="M 1538.42 1346.74 L 1540.56 1345.75 C 1543.44 1347.73 1544.17 1348.4 1546.75 1350.81 C 1543.38 1351.25 1537.98 1353 1534.57 1354.01 L 1535.28 1350.66 C 1536.6 1349.35 1537.51 1348.36 1538.42 1346.74 z"/>
<path transform="translate(0,0)" fill="rgb(66,97,31)" d="M 1740.74 1455.98 C 1743.53 1430.48 1724.33 1387.16 1716.2 1362.53 C 1713.95 1355.69 1708.65 1347.37 1706.86 1340.66 C 1714.07 1346.06 1731.5 1385.6 1735.21 1396.04 C 1740.59 1411.19 1748.3 1435 1750.95 1450.83 C 1748.25 1453.27 1744.6 1456.79 1741.77 1458.87 L 1740.74 1455.98 z"/>
<path transform="translate(0,0)" fill="rgb(25,61,29)" d="M 1594.44 1484.71 C 1592.03 1475.44 1583.95 1452.65 1584.98 1445.11 C 1590.23 1437.13 1604.26 1443.97 1611.31 1447.25 C 1607.1 1446.75 1601.52 1445.05 1598.58 1446.16 C 1599.23 1448.73 1598.87 1447.85 1600.38 1450.04 C 1594.92 1460.89 1610.26 1467.92 1594.44 1484.71 z"/>
<path transform="translate(0,0)" fill="rgb(66,97,31)" d="M 1653.03 1411.85 C 1661.6 1417.03 1700.55 1479.77 1698.75 1487.65 C 1695.98 1489.03 1695.15 1489.7 1692.01 1489.78 C 1689.7 1486.64 1685.61 1471.96 1682.77 1466.25 C 1673.49 1447.66 1663.26 1429.92 1653.03 1411.85 z"/>
<path transform="translate(0,0)" fill="rgb(16,119,132)" d="M 1752.83 1150.66 C 1760.95 1156.37 1767.94 1161.04 1777.99 1161.94 C 1781.01 1167.38 1784.33 1170.82 1781.66 1176.82 C 1772.64 1175.49 1755.83 1165.06 1749.65 1158.17 C 1749.45 1154.63 1750.51 1154.42 1752.83 1150.66 z"/>
<path transform="translate(0,0)" fill="rgb(255,255,254)" d="M 1661.01 1155.05 C 1664.27 1155.49 1666.46 1155.43 1669.09 1157.35 C 1667.74 1159.87 1666.43 1159.51 1662.79 1160.79 C 1660.3 1161.14 1656.83 1159.94 1655.07 1158.1 L 1655.95 1156.5 L 1661.01 1155.05 z"/>
<path transform="translate(0,0)" fill="rgb(220,93,20)" d="M 824.15 415.284 C 845.625 415.108 856.263 430.78 870.288 445.081 L 904.605 479.968 C 948.412 524.641 992.515 569.023 1036.91 613.112 L 1134.43 515.057 C 1152.01 497.397 1169.53 479.28 1187.66 462.207 C 1191.48 458.61 1198.32 454.013 1203.55 453.612 C 1211.37 453.011 1219.89 454.384 1226.05 459.623 C 1243.18 475.786 1260.13 493.631 1276.77 510.328 L 1315.93 549.543 C 1324.5 558.14 1339.78 570.19 1340.69 582.299 C 1341.17 588.442 1339.13 594.516 1335.03 599.116 C 1330.67 603.878 1324.49 606.546 1318.04 606.445 C 1305.28 606.321 1285.18 581.875 1275.69 572.356 L 1208.81 505.585 C 1200.97 510.288 1171.37 541.343 1162.76 550.039 L 1068.75 645.121 C 1087.32 665.1 1112 686.112 1129.22 707.327 C 1130.39 708.771 1132.09 715.549 1132.64 717.722 C 1127.77 733.774 1115.94 747.341 1097.21 736.393 C 1089.29 731.77 1077.57 718.278 1070.65 711.339 L 1026.7 667.293 C 1017.77 658.086 1008.54 648.963 999.459 639.9 C 941.776 582.341 885.095 523.606 827.003 466.47 C 812.442 478.843 783.86 509.383 769.514 523.863 L 585.797 709.219 L 524.344 771.374 C 516.139 779.655 490.988 807.174 481.975 809.878 C 475.993 811.689 469.532 811.011 464.056 807.996 C 458.703 804.949 454.906 799.76 453.62 793.735 C 452.481 788.521 453.684 779.628 456.934 775.875 C 470.403 760.326 487.983 743.635 502.447 729.075 L 610.316 620.343 L 737.236 492.062 L 781.774 446.575 C 795.333 432.781 804.485 418.723 824.15 415.284 z"/>
<path transform="translate(0,0)" fill="rgb(220,93,20)" d="M 868.026 1165.6 C 873.999 1157.34 890.253 1140 897.623 1131.61 C 910.972 1116.18 924.029 1100.5 936.785 1084.58 C 954.098 1063.2 971.229 1041.67 988.175 1020 C 997.643 1007.91 1006.98 995.315 1017.21 983.897 C 1022.83 977.56 1029.67 974.926 1038.02 974.878 C 1054.8 974.78 1065.84 993.738 1074.82 1006.08 L 1105.74 1048.59 C 1111.25 1056.13 1118.75 1067.2 1125.31 1073.62 C 1127.28 1078.1 1147.04 1102.59 1151.48 1109.33 L 1213.07 1192.09 C 1211.23 1240.13 1215.6 1270.34 1226.84 1317.04 C 1182.55 1306.87 1160.77 1312.93 1120.84 1332.98 C 1129.51 1300.01 1129.23 1273.89 1125.99 1240.35 C 1125.68 1237.09 1125.03 1220.97 1127.01 1219.46 C 1134.66 1213.64 1150.95 1219 1155.72 1205.97 C 1160.93 1190.32 1151.82 1180.19 1138.01 1175.76 C 1132.27 1166.51 1129.83 1163.52 1119.72 1159.39 C 1118.25 1150.29 1117.06 1137.09 1106.38 1135.06 C 1100.24 1136.49 1101.02 1138.79 1096.15 1141.02 C 1073.41 1122.59 1073.62 1153.11 1074.26 1167.42 C 1061.36 1186.13 1062.42 1205.15 1059.6 1226.76 C 1058.42 1235.83 1055.81 1251.88 1043.58 1251.09 C 1019.92 1249.56 997.683 1239.42 973.953 1235.27 C 931.191 1227.77 891.092 1238.66 865.482 1276.09 C 871.069 1245.81 871.529 1195.61 868.026 1165.6 z"/>
<path transform="translate(0,0)" fill="rgb(255,255,254)" d="M 1034.2 991.049 C 1040.13 991.156 1044.85 992.026 1048.86 996.985 C 1057.23 1007.34 1064.84 1018.44 1072.75 1029.18 L 1124.39 1099.23 L 1124.13 1100.87 C 1097.66 1113.66 1077.37 1079.59 1065.87 1076.02 C 1054.31 1077.97 1049.85 1103.5 1037.3 1115.87 C 1017.38 1122.31 1017.62 1069.36 1001.73 1075.32 C 991.351 1079.21 958.328 1110.53 946.107 1099.27 L 946.351 1097.84 L 1001.11 1028.24 C 1008.7 1018.56 1024.27 995.839 1034.2 991.049 z"/>
<path transform="translate(0,0)" fill="rgb(66,97,31)" d="M 1138.62 1438.39 C 1143.54 1437.53 1161.19 1437.54 1166.47 1437.83 C 1233.9 1441.6 1291.38 1479.41 1344.98 1516.48 C 1265.23 1500.57 1234.1 1521.27 1162.9 1542.85 C 1087.94 1565.57 1023.38 1559.44 951.245 1531.01 C 873.995 1499.23 834.859 1483.06 749.714 1504.24 C 815.726 1449.54 878.107 1431.59 960.786 1462.52 C 975.443 1468 989.827 1479.2 1004.95 1477.86 C 1032.32 1475.43 1056.48 1461.81 1081.78 1452.15 C 1100.01 1445 1119.14 1440.38 1138.62 1438.39 z"/>
<path transform="translate(0,0)" fill="rgb(143,74,27)" d="M 1084.3 1170.25 C 1083.24 1164.47 1078.77 1146.1 1087.25 1145.1 C 1093.81 1149.75 1094.77 1156.68 1097.33 1164.62 C 1098.6 1158.69 1099.95 1147.75 1105.88 1144.97 L 1107.6 1145.97 C 1110.45 1152.8 1109.62 1156.4 1108.99 1163.7 C 1119.94 1167.86 1125.07 1169.3 1130.24 1180.36 C 1135.41 1183.34 1143.58 1187.56 1147.24 1191.94 C 1148.07 1195.37 1148.21 1193.73 1146.66 1197.03 C 1148.53 1200.46 1148.55 1196.74 1148.89 1202.13 C 1142.89 1214.82 1125.16 1203.36 1114.64 1210.89 C 1110.94 1219.44 1114.18 1264.05 1113.74 1277.23 C 1112.54 1313.15 1107.51 1340.66 1080.89 1366.4 L 1080.07 1368.99 C 1074.1 1373.27 1053.1 1381.85 1052.02 1383 L 1050.17 1382.48 C 1041.22 1407.14 1032.06 1427.12 1023.14 1453.62 C 1017.15 1455.45 1012.11 1456.5 1006 1457.79 C 1011.04 1432.22 1014.18 1403.05 1019.74 1378.66 C 994.711 1377.03 979.441 1372.56 957.084 1360.99 L 955.701 1362.82 C 963.707 1375.01 939.777 1402.49 934.213 1412.28 C 936.391 1420.53 938.333 1427.48 941.036 1435.55 C 933.868 1433.82 926.677 1432.19 919.466 1430.65 C 916.72 1423.08 912.632 1412.8 911.013 1405.16 L 918.735 1397.68 L 917.611 1395.48 C 903.321 1407.72 902.196 1409.68 902.2 1428.43 C 896.159 1428.08 889.654 1427.99 883.567 1427.79 C 882.505 1417.09 881.181 1405.98 880.976 1395.26 C 886.8 1386.88 890.186 1384.7 894.74 1374.39 C 902.934 1355.86 893.324 1342.11 891.528 1323.62 C 890.328 1311.27 891.277 1305.06 894.022 1293.16 C 885.53 1307.51 887.243 1322.95 878.023 1331.21 L 874.982 1330.84 C 874.016 1329.59 873.366 1328.03 872.897 1326.53 C 868.736 1313.15 869.962 1299.43 876.667 1287.09 C 883.487 1274.53 894.428 1265 907.178 1258.77 C 964.709 1230.62 1017.29 1276.87 1053.85 1265.33 C 1077.65 1257.81 1072.86 1212.59 1076.33 1192.69 C 1077.77 1184.47 1080.37 1177.59 1084.3 1170.25 z"/>
<path transform="translate(0,0)" fill="rgb(232,209,185)" d="M 1050.17 1382.48 C 1050.7 1381.57 1051.66 1379.91 1052.5 1379.59 C 1063.23 1375.48 1071.18 1372.33 1080.89 1366.4 L 1080.07 1368.99 C 1074.1 1373.27 1053.1 1381.85 1052.02 1383 L 1050.17 1382.48 z"/>
<path transform="translate(0,0)" fill="rgb(232,209,185)" d="M 937.932 1375.87 C 931.594 1385.29 927.043 1389.88 918.735 1397.68 L 917.611 1395.48 C 924.307 1388.87 931.082 1382.33 937.932 1375.87 z"/>
<path transform="translate(0,0)" fill="rgb(232,209,185)" d="M 955.701 1362.82 C 952.959 1361.59 950.038 1360.22 949.143 1357.28 C 952.98 1357.48 953.289 1358.56 957.084 1360.99 L 955.701 1362.82 z"/>
<path transform="translate(0,0)" fill="rgb(66,97,31)" d="M 1183.59 1330.36 C 1203.19 1328.71 1214.52 1332.44 1232.8 1339.36 C 1246.73 1383.79 1274.6 1430.3 1304.48 1465.67 C 1280.39 1451.72 1263.98 1443.95 1238.25 1433.53 C 1189.89 1414.88 1152.77 1413.23 1103.01 1423.97 C 1100.44 1410.34 1097.99 1396.69 1095.65 1383.02 C 1120.63 1351.68 1141.89 1335.44 1183.59 1330.36 z"/>
<path transform="translate(0,0)" fill="rgb(220,93,20)" d="M 1563.26 709.132 C 1567.52 708.937 1577.17 708.777 1580.72 712.017 C 1607.54 736.569 1633.55 763.107 1658.44 789.64 C 1664.04 795.608 1662.37 807.341 1657.58 813.42 C 1654.28 817.629 1649.41 820.318 1644.1 820.866 C 1629.54 822.228 1617.67 806.105 1608.24 797.013 C 1595.31 784.538 1583.33 770.337 1569.76 758.583 L 1567.92 758.666 C 1554.1 771.846 1541.05 786.06 1527.25 799.26 C 1514.95 811.031 1508.09 822.394 1490.84 826.49 C 1462.71 818.658 1467.44 796.239 1486.01 781.283 C 1503.37 767.293 1545.35 714.818 1563.26 709.132 z"/>
<path transform="translate(0,0)" fill="rgb(8,59,38)" d="M 1785.37 707.072 C 1785.78 706.996 1790.28 706.366 1791.22 706.805 C 1799.58 710.735 1818.69 716.338 1824.67 722.215 C 1826.78 725.379 1827.09 732.757 1829.98 735.03 C 1836.33 740.019 1851.75 745.268 1848.86 755.976 C 1848.3 759.029 1843.47 765.823 1840.04 765.188 C 1829 763.143 1827.97 760.646 1818.22 768.292 C 1815.79 770.205 1808.27 766.947 1804.51 765.804 C 1798.49 771.729 1794.82 798.88 1778.5 778.611 C 1778.49 774.043 1779.19 774.121 1777.26 770.69 C 1771.08 767.212 1761.84 771.33 1753.87 769.201 C 1744.39 766.668 1736.03 775.946 1729.02 761.971 C 1726.91 757.764 1725.89 757.171 1727.21 752.148 C 1734.03 745.461 1746.52 750.654 1755.24 750.436 C 1757.1 738.274 1735.29 723.008 1750.74 712.263 C 1764.88 702.436 1772.46 720.473 1785.37 707.072 z"/>
<path transform="translate(0,0)" fill="rgb(66,97,31)" d="M 856.261 1317.65 C 858.769 1321.86 859.862 1330.67 863.794 1335.49 C 869.583 1342.59 871.784 1339.92 880.272 1340.99 C 892.571 1370.8 875.145 1373.2 868.34 1396.93 C 867.105 1401.24 870.554 1421.81 871.468 1427.84 C 847.472 1430.25 831.983 1433.71 809.581 1442.74 C 802.635 1445.59 794.325 1449.7 787.384 1452.89 C 820.373 1409.16 840.61 1370 856.261 1317.65 z"/>
<path transform="translate(0,0)" fill="rgb(8,59,38)" d="M 1633.61 616.843 C 1637.77 616.55 1656.17 618.602 1660.22 620.304 C 1672.73 625.553 1664.81 636.289 1667.5 642.433 C 1687.89 637.547 1691.46 644.401 1709.42 645.409 C 1723.66 646.208 1724.73 645.829 1722.79 661.955 C 1724.86 663.264 1726.96 663.656 1729.29 663.109 C 1740.24 660.542 1758.86 678.46 1746.92 688.245 C 1743.13 691.355 1741.3 690.267 1737.96 691.913 C 1731.27 695.208 1730.3 697.693 1722.37 697.542 C 1706.66 691.057 1698.89 711.042 1686.2 697.211 C 1685.41 692.736 1686.79 693.489 1688.73 688.053 C 1686.05 681.306 1675.07 682.437 1673.17 672.787 C 1674.08 668.953 1675.73 667.634 1678.27 664.591 L 1679.1 663.612 C 1675.69 660.216 1667.82 661.582 1664.89 656.932 C 1663.08 654.058 1664.98 651.592 1662.41 647.467 C 1646.77 645.176 1648.47 656.255 1634.9 638.843 C 1629.24 637.2 1614.25 635.947 1611.31 631.574 L 1612.35 629.643 C 1616.77 626.828 1621.33 626.552 1626.58 625.652 C 1629.04 622.18 1630.8 620.047 1633.61 616.843 z"/>
<path transform="translate(0,0)" fill="rgb(255,255,254)" d="M 1698.99 678.976 C 1702.64 681.283 1705.5 681.913 1706.81 684.931 L 1705.6 687.524 C 1701.93 687.38 1699.67 687.579 1696.28 686.111 C 1695.64 682.746 1696.53 682.952 1698.99 678.976 z"/>
<path transform="translate(0,0)" fill="rgb(16,119,132)" d="M 1845.87 807.215 C 1867.3 805.709 1873.15 811.978 1889.59 823.388 C 1895.7 827.636 1907.35 831.787 1903 841.353 C 1890.27 850.122 1865.5 820.587 1850.56 823.716 C 1835.61 826.846 1829.09 835.349 1816.53 842.038 C 1801.13 850.244 1782.12 847.676 1768.76 836.874 C 1763.39 832.702 1757.38 829.185 1750.85 827.134 L 1749.56 826.745 C 1741.47 826.756 1739.55 827.153 1732.45 830.985 C 1722.37 836.424 1700.35 856.048 1690.22 843.558 C 1688.88 834.997 1702.55 833.594 1707.6 829.165 C 1734.95 805.163 1751.83 803.516 1781.09 825.082 C 1804.09 842.044 1822.65 812.785 1844.48 807.536 L 1845.87 807.215 z"/>
<path transform="translate(0,0)" fill="rgb(66,97,31)" d="M 966.745 1380.86 C 980.715 1385.68 989.283 1388.56 1003.76 1390.84 C 1002.61 1403.92 996.866 1441.24 993.484 1453.17 L 992.027 1453.9 L 987.272 1452.02 C 975.766 1447.03 966.548 1443.34 954.723 1439.17 C 951.799 1430.61 948.966 1422.01 946.226 1413.39 C 957.133 1402.09 961.039 1395.37 966.745 1380.86 z"/>
<path transform="translate(0,0)" fill="rgb(143,74,27)" d="M 1052.02 1383 C 1053.1 1381.85 1074.1 1373.27 1080.07 1368.99 C 1082.85 1387.54 1087.44 1409.16 1091.36 1427.69 L 1074.51 1433.51 C 1070.35 1421.28 1058.72 1394.17 1052.02 1383 z"/>
<path transform="translate(0,0)" fill="rgb(66,97,31)" d="M 1050.59 1409.79 C 1055.71 1414.46 1061.25 1430.64 1062.83 1437.76 L 1044.25 1445.63 L 1035.24 1448.97 C 1039.78 1435.69 1044.9 1422.62 1050.59 1409.79 z"/>
<path transform="translate(0,0)" fill="rgb(8,59,38)" d="M 1707.56 704.902 C 1714.61 707.929 1722.5 712.404 1722.72 721.038 C 1720.21 726.464 1716.1 725.362 1711.31 723.126 L 1710.2 722.103 C 1705.57 724.84 1701.24 726.379 1697.05 722.157 C 1694.62 713.233 1701.34 709.604 1707.56 704.902 z"/>
</svg>